<svg width="320" height="320" viewBox="0 0 320 320" fill="none" xmlns="http://www.w3.org/2000/svg">
<rect width="320" height="320" rx="160" fill="#5865F2"/>
<path d="M226.54 99.1402C214.091 93.4267 200.954 89.3488 187.457 87.0083C187.334 86.9877 187.209 87.0055 187.097 87.0592C186.985 87.113 186.893 87.2 186.833 87.3083C185.141 90.3083 183.269 94.2323 181.961 97.3042C167.412 95.0964 152.614 95.0964 138.065 97.3042C136.606 93.8821 134.956 90.5449 133.121 87.3083C133.06 87.2012 132.967 87.1152 132.856 87.0616C132.744 87.0081 132.619 86.9895 132.497 87.0083C118.997 89.3363 105.858 93.4163 93.4137 99.1402C93.3072 99.1809 93.2182 99.2572 93.1617 99.3562C68.274 136.544 61.4461 172.819 64.794 208.639C64.806 208.807 64.914 208.975 65.046 209.083C79.5386 219.818 95.7488 228.015 112.986 233.323C113.107 233.361 113.238 233.36 113.359 233.319C113.48 233.278 113.584 233.199 113.658 233.095C117.353 228.055 120.641 222.739 123.473 217.147C123.532 217.032 123.553 216.901 123.531 216.773C123.509 216.645 123.447 216.528 123.353 216.439C123.291 216.38 123.218 216.335 123.137 216.307C117.967 214.32 112.96 211.933 108.162 209.167C108.028 209.091 107.928 208.967 107.883 208.819C107.838 208.672 107.852 208.513 107.922 208.375C107.962 208.286 108.024 208.208 108.102 208.147C109.11 207.391 110.118 206.599 111.078 205.807C111.162 205.739 111.264 205.695 111.372 205.68C111.48 205.666 111.589 205.68 111.69 205.723C143.117 220.075 177.137 220.075 208.181 205.723C208.284 205.678 208.398 205.662 208.51 205.677C208.622 205.692 208.728 205.737 208.816 205.807C209.776 206.599 210.784 207.391 211.792 208.147C211.874 208.207 211.94 208.286 211.983 208.377C212.027 208.468 212.047 208.569 212.043 208.67C212.038 208.771 212.008 208.869 211.956 208.956C211.904 209.043 211.831 209.115 211.744 209.167C206.957 211.958 201.943 214.343 196.757 216.295C196.674 216.325 196.599 216.373 196.537 216.435C196.474 216.497 196.427 216.572 196.397 216.655C196.369 216.735 196.358 216.82 196.364 216.905C196.37 216.989 196.394 217.072 196.433 217.147C199.313 222.727 202.613 228.055 206.237 233.095C206.31 233.199 206.414 233.278 206.535 233.319C206.656 233.36 206.787 233.361 206.909 233.323C224.174 228.031 240.411 219.834 254.92 209.083C254.993 209.033 255.053 208.967 255.097 208.89C255.14 208.813 255.166 208.727 255.172 208.639C259.18 167.228 248.464 131.252 226.78 99.3682C226.758 99.3155 226.726 99.268 226.684 99.2288C226.643 99.1895 226.594 99.1593 226.54 99.1402ZM128.165 186.823C118.697 186.823 110.91 178.135 110.91 167.48C110.91 156.812 118.553 148.124 128.165 148.124C137.849 148.124 145.565 156.884 145.421 167.48C145.421 178.135 137.777 186.823 128.165 186.823ZM191.957 186.823C182.501 186.823 174.701 178.135 174.701 167.48C174.701 156.812 182.345 148.124 191.957 148.124C201.641 148.124 209.368 156.884 209.212 167.48C209.212 178.135 201.641 186.823 191.957 186.823Z" fill="white"/>
</svg>
